<mxfile host="Electron" modified="2024-05-24T10:31:12.744Z" agent="Mozilla/5.0 (Macintosh; Intel Mac OS X 10_15_7) AppleWebKit/537.36 (KHTML, like Gecko) draw.io/24.4.0 Chrome/120.0.6099.109 Electron/28.1.0 Safari/537.36" etag="FGnhINWtPsdfJpW5Aex8" version="24.4.0" type="device">
  <diagram name="Page-1" id="SxXlcWzUZOzrU7-Zz16d">
    <mxGraphModel dx="363" dy="1290" grid="0" gridSize="10" guides="1" tooltips="1" connect="1" arrows="1" fold="1" page="0" pageScale="1" pageWidth="827" pageHeight="1169" math="0" shadow="0">
      <root>
        <mxCell id="0" />
        <mxCell id="1" parent="0" />
        <mxCell id="K68oZ9XiZdih-K7149-5-86" value="" style="rounded=0;whiteSpace=wrap;html=1;fillColor=#D4E1F5;strokeColor=#6c8ebf;fillStyle=hatch;" vertex="1" parent="1">
          <mxGeometry x="2770" y="270" width="420" height="180" as="geometry" />
        </mxCell>
        <mxCell id="K68oZ9XiZdih-K7149-5-87" style="edgeStyle=orthogonalEdgeStyle;rounded=0;orthogonalLoop=1;jettySize=auto;html=1;exitX=1;exitY=0.25;exitDx=0;exitDy=0;entryX=0;entryY=0.25;entryDx=0;entryDy=0;dashed=1;fillColor=#dae8fc;strokeColor=#6c8ebf;" edge="1" parent="1" source="K68oZ9XiZdih-K7149-5-89" target="K68oZ9XiZdih-K7149-5-93">
          <mxGeometry relative="1" as="geometry" />
        </mxCell>
        <mxCell id="K68oZ9XiZdih-K7149-5-88" style="edgeStyle=orthogonalEdgeStyle;rounded=0;orthogonalLoop=1;jettySize=auto;html=1;exitX=0;exitY=0.25;exitDx=0;exitDy=0;entryX=1;entryY=0.25;entryDx=0;entryDy=0;fillColor=#dae8fc;strokeColor=#6c8ebf;" edge="1" parent="1" source="K68oZ9XiZdih-K7149-5-89" target="K68oZ9XiZdih-K7149-5-91">
          <mxGeometry relative="1" as="geometry" />
        </mxCell>
        <mxCell id="K68oZ9XiZdih-K7149-5-89" value="ViewModel" style="rounded=0;whiteSpace=wrap;html=1;fillColor=#dae8fc;strokeColor=#6c8ebf;" vertex="1" parent="1">
          <mxGeometry x="1970" y="320" width="160" height="50" as="geometry" />
        </mxCell>
        <mxCell id="K68oZ9XiZdih-K7149-5-90" style="edgeStyle=orthogonalEdgeStyle;rounded=0;orthogonalLoop=1;jettySize=auto;html=1;exitX=1;exitY=0.75;exitDx=0;exitDy=0;entryX=0;entryY=0.75;entryDx=0;entryDy=0;dashed=1;fillColor=#dae8fc;strokeColor=#6c8ebf;" edge="1" parent="1" source="K68oZ9XiZdih-K7149-5-91" target="K68oZ9XiZdih-K7149-5-89">
          <mxGeometry relative="1" as="geometry" />
        </mxCell>
        <mxCell id="K68oZ9XiZdih-K7149-5-91" value="Model" style="rounded=0;whiteSpace=wrap;html=1;fillColor=#dae8fc;strokeColor=#6c8ebf;" vertex="1" parent="1">
          <mxGeometry x="1730" y="320" width="160" height="50" as="geometry" />
        </mxCell>
        <mxCell id="K68oZ9XiZdih-K7149-5-92" style="edgeStyle=orthogonalEdgeStyle;rounded=0;orthogonalLoop=1;jettySize=auto;html=1;exitX=0;exitY=0.75;exitDx=0;exitDy=0;entryX=1;entryY=0.75;entryDx=0;entryDy=0;dashed=1;fillColor=#dae8fc;strokeColor=#6c8ebf;" edge="1" parent="1" source="K68oZ9XiZdih-K7149-5-93" target="K68oZ9XiZdih-K7149-5-89">
          <mxGeometry relative="1" as="geometry" />
        </mxCell>
        <mxCell id="K68oZ9XiZdih-K7149-5-93" value="View" style="rounded=0;whiteSpace=wrap;html=1;fillColor=#dae8fc;strokeColor=#6c8ebf;" vertex="1" parent="1">
          <mxGeometry x="2210" y="320" width="160" height="50" as="geometry" />
        </mxCell>
        <mxCell id="K68oZ9XiZdih-K7149-5-94" value="" style="endArrow=none;dashed=1;html=1;rounded=0;fillColor=#fff2cc;strokeColor=#d6b656;strokeWidth=2;" edge="1" parent="1">
          <mxGeometry width="50" height="50" relative="1" as="geometry">
            <mxPoint x="1930" y="410" as="sourcePoint" />
            <mxPoint x="1930" y="250" as="targetPoint" />
          </mxGeometry>
        </mxCell>
        <mxCell id="K68oZ9XiZdih-K7149-5-95" value="" style="endArrow=none;dashed=1;html=1;rounded=0;fillColor=#fff2cc;strokeColor=#d6b656;strokeWidth=2;" edge="1" parent="1" source="K68oZ9XiZdih-K7149-5-97">
          <mxGeometry width="50" height="50" relative="1" as="geometry">
            <mxPoint x="2170" y="410" as="sourcePoint" />
            <mxPoint x="2170" y="230" as="targetPoint" />
          </mxGeometry>
        </mxCell>
        <mxCell id="K68oZ9XiZdih-K7149-5-96" value="" style="endArrow=none;dashed=1;html=1;rounded=0;fillColor=#fff2cc;strokeColor=#d6b656;strokeWidth=2;" edge="1" parent="1" target="K68oZ9XiZdih-K7149-5-97">
          <mxGeometry width="50" height="50" relative="1" as="geometry">
            <mxPoint x="2170" y="410" as="sourcePoint" />
            <mxPoint x="2170" y="230" as="targetPoint" />
          </mxGeometry>
        </mxCell>
        <mxCell id="K68oZ9XiZdih-K7149-5-97" value="Binder" style="text;html=1;align=center;verticalAlign=middle;resizable=0;points=[];autosize=1;strokeColor=none;fillColor=none;" vertex="1" parent="1">
          <mxGeometry x="2140" y="270" width="60" height="30" as="geometry" />
        </mxCell>
        <mxCell id="K68oZ9XiZdih-K7149-5-98" value="Binds the View to&lt;br&gt;the ViewModel&lt;br&gt;properties" style="text;html=1;align=center;verticalAlign=middle;resizable=0;points=[];autosize=1;strokeColor=none;fillColor=none;" vertex="1" parent="1">
          <mxGeometry x="2230" y="385" width="120" height="60" as="geometry" />
        </mxCell>
        <mxCell id="K68oZ9XiZdih-K7149-5-99" value="Exposes&lt;br&gt;observable&lt;br&gt;properties" style="text;html=1;align=center;verticalAlign=middle;resizable=0;points=[];autosize=1;strokeColor=none;fillColor=none;" vertex="1" parent="1">
          <mxGeometry x="2010" y="385" width="80" height="60" as="geometry" />
        </mxCell>
        <mxCell id="K68oZ9XiZdih-K7149-5-100" value="Notifications,&lt;br&gt;Callbacks,&lt;br&gt;Observers" style="text;html=1;align=center;verticalAlign=middle;resizable=0;points=[];autosize=1;strokeColor=none;fillColor=none;" vertex="1" parent="1">
          <mxGeometry x="1765" y="385" width="90" height="60" as="geometry" />
        </mxCell>
        <mxCell id="K68oZ9XiZdih-K7149-5-101" value="Presentation Mediator" style="text;html=1;align=center;verticalAlign=middle;resizable=0;points=[];autosize=1;strokeColor=none;fillColor=none;fontStyle=1" vertex="1" parent="1">
          <mxGeometry x="1975" y="245" width="150" height="30" as="geometry" />
        </mxCell>
        <mxCell id="K68oZ9XiZdih-K7149-5-102" value="Model events &amp;gt;&amp;gt;" style="text;html=1;align=center;verticalAlign=middle;resizable=0;points=[];autosize=1;strokeColor=none;fillColor=none;fontStyle=1" vertex="1" parent="1">
          <mxGeometry x="1750" y="245" width="120" height="30" as="geometry" />
        </mxCell>
        <mxCell id="K68oZ9XiZdih-K7149-5-103" value="&amp;lt;&amp;lt; User events" style="text;html=1;align=center;verticalAlign=middle;resizable=0;points=[];autosize=1;strokeColor=none;fillColor=none;fontStyle=1" vertex="1" parent="1">
          <mxGeometry x="2240" y="245" width="110" height="30" as="geometry" />
        </mxCell>
        <mxCell id="K68oZ9XiZdih-K7149-5-104" value="&lt;font style=&quot;font-size: 24px;&quot;&gt;MVVM&lt;/font&gt;" style="text;html=1;align=center;verticalAlign=middle;resizable=0;points=[];autosize=1;strokeColor=none;fillColor=none;fontStyle=1" vertex="1" parent="1">
          <mxGeometry x="1710" y="160" width="90" height="40" as="geometry" />
        </mxCell>
        <mxCell id="K68oZ9XiZdih-K7149-5-105" style="edgeStyle=orthogonalEdgeStyle;rounded=0;orthogonalLoop=1;jettySize=auto;html=1;exitX=0;exitY=0.25;exitDx=0;exitDy=0;entryX=1;entryY=0.25;entryDx=0;entryDy=0;fillColor=#dae8fc;strokeColor=#6c8ebf;" edge="1" parent="1" source="K68oZ9XiZdih-K7149-5-108" target="K68oZ9XiZdih-K7149-5-110">
          <mxGeometry relative="1" as="geometry" />
        </mxCell>
        <mxCell id="K68oZ9XiZdih-K7149-5-106" style="edgeStyle=orthogonalEdgeStyle;rounded=0;orthogonalLoop=1;jettySize=auto;html=1;exitX=0.5;exitY=1;exitDx=0;exitDy=0;entryX=0.5;entryY=0;entryDx=0;entryDy=0;strokeColor=#6c8ebf;fillColor=#dae8fc;" edge="1" parent="1" source="K68oZ9XiZdih-K7149-5-108" target="K68oZ9XiZdih-K7149-5-123">
          <mxGeometry relative="1" as="geometry" />
        </mxCell>
        <mxCell id="K68oZ9XiZdih-K7149-5-107" style="edgeStyle=orthogonalEdgeStyle;rounded=0;orthogonalLoop=1;jettySize=auto;html=1;exitX=0.5;exitY=0;exitDx=0;exitDy=0;strokeColor=#6c8ebf;fillColor=#dae8fc;" edge="1" parent="1" source="K68oZ9XiZdih-K7149-5-108" target="K68oZ9XiZdih-K7149-5-122">
          <mxGeometry relative="1" as="geometry" />
        </mxCell>
        <mxCell id="K68oZ9XiZdih-K7149-5-108" value="Presenter" style="rounded=0;whiteSpace=wrap;html=1;fillColor=#dae8fc;strokeColor=#6c8ebf;" vertex="1" parent="1">
          <mxGeometry x="1970" y="695" width="160" height="50" as="geometry" />
        </mxCell>
        <mxCell id="K68oZ9XiZdih-K7149-5-109" style="edgeStyle=orthogonalEdgeStyle;rounded=0;orthogonalLoop=1;jettySize=auto;html=1;exitX=1;exitY=0.75;exitDx=0;exitDy=0;entryX=0;entryY=0.75;entryDx=0;entryDy=0;dashed=1;fillColor=#dae8fc;strokeColor=#6c8ebf;" edge="1" parent="1" source="K68oZ9XiZdih-K7149-5-110" target="K68oZ9XiZdih-K7149-5-108">
          <mxGeometry relative="1" as="geometry" />
        </mxCell>
        <mxCell id="K68oZ9XiZdih-K7149-5-110" value="&amp;lt;ModelLayer&amp;gt;" style="rounded=0;whiteSpace=wrap;html=1;fillColor=#dae8fc;strokeColor=#6c8ebf;" vertex="1" parent="1">
          <mxGeometry x="1730" y="695" width="160" height="50" as="geometry" />
        </mxCell>
        <mxCell id="K68oZ9XiZdih-K7149-5-111" style="edgeStyle=orthogonalEdgeStyle;rounded=0;orthogonalLoop=1;jettySize=auto;html=1;exitX=0;exitY=0.75;exitDx=0;exitDy=0;entryX=1;entryY=0.5;entryDx=0;entryDy=0;strokeColor=#6c8ebf;fillColor=#dae8fc;endArrow=block;endFill=0;" edge="1" parent="1" source="K68oZ9XiZdih-K7149-5-114" target="K68oZ9XiZdih-K7149-5-123">
          <mxGeometry relative="1" as="geometry">
            <Array as="points">
              <mxPoint x="2160" y="733" />
              <mxPoint x="2160" y="795" />
            </Array>
          </mxGeometry>
        </mxCell>
        <mxCell id="K68oZ9XiZdih-K7149-5-112" style="edgeStyle=orthogonalEdgeStyle;rounded=0;orthogonalLoop=1;jettySize=auto;html=1;exitX=0;exitY=0.5;exitDx=0;exitDy=0;entryX=1;entryY=0.5;entryDx=0;entryDy=0;strokeColor=#6c8ebf;fillColor=#dae8fc;" edge="1" parent="1" source="K68oZ9XiZdih-K7149-5-114" target="K68oZ9XiZdih-K7149-5-108">
          <mxGeometry relative="1" as="geometry" />
        </mxCell>
        <mxCell id="K68oZ9XiZdih-K7149-5-113" style="edgeStyle=orthogonalEdgeStyle;rounded=0;orthogonalLoop=1;jettySize=auto;html=1;exitX=0.5;exitY=0;exitDx=0;exitDy=0;entryX=1;entryY=0.5;entryDx=0;entryDy=0;strokeColor=#6c8ebf;fillColor=#dae8fc;" edge="1" parent="1" source="K68oZ9XiZdih-K7149-5-114" target="K68oZ9XiZdih-K7149-5-122">
          <mxGeometry relative="1" as="geometry" />
        </mxCell>
        <mxCell id="K68oZ9XiZdih-K7149-5-114" value="View" style="rounded=0;whiteSpace=wrap;html=1;fillColor=#dae8fc;strokeColor=#6c8ebf;" vertex="1" parent="1">
          <mxGeometry x="2210" y="695" width="160" height="50" as="geometry" />
        </mxCell>
        <mxCell id="K68oZ9XiZdih-K7149-5-115" value="" style="endArrow=none;dashed=1;html=1;rounded=0;fillColor=#fff2cc;strokeColor=#d6b656;strokeWidth=2;" edge="1" parent="1">
          <mxGeometry width="50" height="50" relative="1" as="geometry">
            <mxPoint x="1930" y="785" as="sourcePoint" />
            <mxPoint x="1930" y="625" as="targetPoint" />
          </mxGeometry>
        </mxCell>
        <mxCell id="K68oZ9XiZdih-K7149-5-116" value="" style="endArrow=none;dashed=1;html=1;rounded=0;fillColor=#fff2cc;strokeColor=#d6b656;strokeWidth=2;" edge="1" parent="1">
          <mxGeometry width="50" height="50" relative="1" as="geometry">
            <mxPoint x="2170" y="785" as="sourcePoint" />
            <mxPoint x="2170" y="630" as="targetPoint" />
          </mxGeometry>
        </mxCell>
        <mxCell id="K68oZ9XiZdih-K7149-5-117" value="Protocols/Interfaces" style="text;html=1;align=center;verticalAlign=middle;resizable=0;points=[];autosize=1;strokeColor=none;fillColor=none;" vertex="1" parent="1">
          <mxGeometry x="1745" y="775" width="130" height="30" as="geometry" />
        </mxCell>
        <mxCell id="K68oZ9XiZdih-K7149-5-118" value="Presentation Mediator" style="text;html=1;align=center;verticalAlign=middle;resizable=0;points=[];autosize=1;strokeColor=none;fillColor=none;fontStyle=1" vertex="1" parent="1">
          <mxGeometry x="1977.5" y="565" width="150" height="30" as="geometry" />
        </mxCell>
        <mxCell id="K68oZ9XiZdih-K7149-5-119" value="Model events &amp;gt;&amp;gt;" style="text;html=1;align=center;verticalAlign=middle;resizable=0;points=[];autosize=1;strokeColor=none;fillColor=none;fontStyle=1" vertex="1" parent="1">
          <mxGeometry x="1750" y="565" width="120" height="30" as="geometry" />
        </mxCell>
        <mxCell id="K68oZ9XiZdih-K7149-5-120" value="&amp;lt;&amp;lt; User events" style="text;html=1;align=center;verticalAlign=middle;resizable=0;points=[];autosize=1;strokeColor=none;fillColor=none;fontStyle=1" vertex="1" parent="1">
          <mxGeometry x="2235" y="565" width="110" height="30" as="geometry" />
        </mxCell>
        <mxCell id="K68oZ9XiZdih-K7149-5-121" value="&lt;font style=&quot;font-size: 24px;&quot;&gt;MVP&lt;/font&gt;" style="text;html=1;align=center;verticalAlign=middle;resizable=0;points=[];autosize=1;strokeColor=none;fillColor=none;fontStyle=1" vertex="1" parent="1">
          <mxGeometry x="1712" y="508" width="70" height="40" as="geometry" />
        </mxCell>
        <mxCell id="K68oZ9XiZdih-K7149-5-122" value="ViewData" style="rounded=0;whiteSpace=wrap;html=1;fillColor=#dae8fc;strokeColor=#6c8ebf;" vertex="1" parent="1">
          <mxGeometry x="1970" y="620" width="160" height="50" as="geometry" />
        </mxCell>
        <mxCell id="K68oZ9XiZdih-K7149-5-123" value="&amp;lt;View&amp;gt;" style="rounded=0;whiteSpace=wrap;html=1;fillColor=#dae8fc;strokeColor=#6c8ebf;" vertex="1" parent="1">
          <mxGeometry x="1970" y="770" width="160" height="50" as="geometry" />
        </mxCell>
        <mxCell id="K68oZ9XiZdih-K7149-5-124" value="&amp;lt;&amp;lt;creates&amp;gt;&amp;gt;" style="text;html=1;align=center;verticalAlign=middle;resizable=0;points=[];autosize=1;strokeColor=none;fillColor=none;fontSize=10;" vertex="1" parent="1">
          <mxGeometry x="1960" y="665" width="80" height="30" as="geometry" />
        </mxCell>
        <mxCell id="K68oZ9XiZdih-K7149-5-125" value="&amp;lt;&amp;lt;events&amp;gt;&amp;gt;" style="text;html=1;align=center;verticalAlign=middle;resizable=0;points=[];autosize=1;strokeColor=none;fillColor=none;fontSize=10;" vertex="1" parent="1">
          <mxGeometry x="2140" y="695" width="80" height="30" as="geometry" />
        </mxCell>
        <mxCell id="K68oZ9XiZdih-K7149-5-126" style="edgeStyle=orthogonalEdgeStyle;rounded=0;orthogonalLoop=1;jettySize=auto;html=1;exitX=1;exitY=0.25;exitDx=0;exitDy=0;entryX=0;entryY=0.25;entryDx=0;entryDy=0;fillColor=#dae8fc;strokeColor=#6c8ebf;" edge="1" parent="1" source="K68oZ9XiZdih-K7149-5-128" target="K68oZ9XiZdih-K7149-5-132">
          <mxGeometry relative="1" as="geometry" />
        </mxCell>
        <mxCell id="K68oZ9XiZdih-K7149-5-127" style="edgeStyle=orthogonalEdgeStyle;rounded=0;orthogonalLoop=1;jettySize=auto;html=1;exitX=0;exitY=0.25;exitDx=0;exitDy=0;entryX=1;entryY=0.25;entryDx=0;entryDy=0;fillColor=#dae8fc;strokeColor=#6c8ebf;" edge="1" parent="1" source="K68oZ9XiZdih-K7149-5-128" target="K68oZ9XiZdih-K7149-5-130">
          <mxGeometry relative="1" as="geometry" />
        </mxCell>
        <mxCell id="K68oZ9XiZdih-K7149-5-128" value="UIViewController" style="rounded=0;whiteSpace=wrap;html=1;fillColor=#dae8fc;strokeColor=#6c8ebf;" vertex="1" parent="1">
          <mxGeometry x="2780" y="320" width="160" height="50" as="geometry" />
        </mxCell>
        <mxCell id="K68oZ9XiZdih-K7149-5-129" style="edgeStyle=orthogonalEdgeStyle;rounded=0;orthogonalLoop=1;jettySize=auto;html=1;exitX=1;exitY=0.75;exitDx=0;exitDy=0;entryX=0;entryY=0.75;entryDx=0;entryDy=0;dashed=1;fillColor=#dae8fc;strokeColor=#6c8ebf;" edge="1" parent="1" source="K68oZ9XiZdih-K7149-5-130" target="K68oZ9XiZdih-K7149-5-128">
          <mxGeometry relative="1" as="geometry" />
        </mxCell>
        <mxCell id="K68oZ9XiZdih-K7149-5-130" value="Model" style="rounded=0;whiteSpace=wrap;html=1;fillColor=#dae8fc;strokeColor=#6c8ebf;" vertex="1" parent="1">
          <mxGeometry x="2540" y="320" width="160" height="50" as="geometry" />
        </mxCell>
        <mxCell id="K68oZ9XiZdih-K7149-5-131" style="edgeStyle=orthogonalEdgeStyle;rounded=0;orthogonalLoop=1;jettySize=auto;html=1;exitX=0;exitY=0.75;exitDx=0;exitDy=0;entryX=1;entryY=0.75;entryDx=0;entryDy=0;dashed=1;fillColor=#dae8fc;strokeColor=#6c8ebf;" edge="1" parent="1" source="K68oZ9XiZdih-K7149-5-132" target="K68oZ9XiZdih-K7149-5-128">
          <mxGeometry relative="1" as="geometry" />
        </mxCell>
        <mxCell id="K68oZ9XiZdih-K7149-5-132" value="UIView&lt;br&gt;UIButton&amp;nbsp;..." style="rounded=0;whiteSpace=wrap;html=1;fillColor=#dae8fc;strokeColor=#6c8ebf;" vertex="1" parent="1">
          <mxGeometry x="3020" y="320" width="160" height="50" as="geometry" />
        </mxCell>
        <mxCell id="K68oZ9XiZdih-K7149-5-133" value="" style="endArrow=none;dashed=1;html=1;rounded=0;fillColor=#fff2cc;strokeColor=#d6b656;strokeWidth=2;" edge="1" parent="1">
          <mxGeometry width="50" height="50" relative="1" as="geometry">
            <mxPoint x="2740" y="410" as="sourcePoint" />
            <mxPoint x="2740" y="250" as="targetPoint" />
          </mxGeometry>
        </mxCell>
        <mxCell id="K68oZ9XiZdih-K7149-5-134" value="" style="endArrow=none;dashed=1;html=1;rounded=0;fillColor=#fff2cc;strokeColor=#d6b656;strokeWidth=2;" edge="1" parent="1">
          <mxGeometry width="50" height="50" relative="1" as="geometry">
            <mxPoint x="2980" y="410" as="sourcePoint" />
            <mxPoint x="2980" y="300" as="targetPoint" />
          </mxGeometry>
        </mxCell>
        <mxCell id="K68oZ9XiZdih-K7149-5-135" value="Notifications,&lt;br&gt;Callbacks,&lt;br&gt;Observers" style="text;html=1;align=center;verticalAlign=middle;resizable=0;points=[];autosize=1;strokeColor=none;fillColor=none;" vertex="1" parent="1">
          <mxGeometry x="2575" y="385" width="90" height="60" as="geometry" />
        </mxCell>
        <mxCell id="K68oZ9XiZdih-K7149-5-136" value="Model events &amp;gt;&amp;gt;" style="text;html=1;align=center;verticalAlign=middle;resizable=0;points=[];autosize=1;strokeColor=none;fillColor=none;fontStyle=1" vertex="1" parent="1">
          <mxGeometry x="2560" y="217.5" width="120" height="30" as="geometry" />
        </mxCell>
        <mxCell id="K68oZ9XiZdih-K7149-5-137" value="UIKit" style="text;html=1;align=center;verticalAlign=middle;resizable=0;points=[];autosize=1;strokeColor=none;fillColor=none;fontStyle=1" vertex="1" parent="1">
          <mxGeometry x="3130" y="275" width="50" height="30" as="geometry" />
        </mxCell>
        <mxCell id="K68oZ9XiZdih-K7149-5-138" value="&lt;font style=&quot;font-size: 24px;&quot;&gt;MVVM&lt;/font&gt;" style="text;html=1;align=center;verticalAlign=middle;resizable=0;points=[];autosize=1;strokeColor=none;fillColor=none;fontStyle=1" vertex="1" parent="1">
          <mxGeometry x="2520" y="160" width="90" height="40" as="geometry" />
        </mxCell>
        <mxCell id="K68oZ9XiZdih-K7149-5-139" style="edgeStyle=orthogonalEdgeStyle;rounded=0;orthogonalLoop=1;jettySize=auto;html=1;exitX=0;exitY=0.25;exitDx=0;exitDy=0;entryX=1;entryY=0.25;entryDx=0;entryDy=0;fillColor=#dae8fc;strokeColor=#6c8ebf;" edge="1" parent="1" source="K68oZ9XiZdih-K7149-5-142" target="K68oZ9XiZdih-K7149-5-144">
          <mxGeometry relative="1" as="geometry" />
        </mxCell>
        <mxCell id="K68oZ9XiZdih-K7149-5-140" style="edgeStyle=orthogonalEdgeStyle;rounded=0;orthogonalLoop=1;jettySize=auto;html=1;exitX=0.5;exitY=1;exitDx=0;exitDy=0;entryX=0.5;entryY=0;entryDx=0;entryDy=0;strokeColor=#6c8ebf;fillColor=#dae8fc;" edge="1" parent="1" source="K68oZ9XiZdih-K7149-5-142" target="K68oZ9XiZdih-K7149-5-156">
          <mxGeometry relative="1" as="geometry" />
        </mxCell>
        <mxCell id="K68oZ9XiZdih-K7149-5-141" style="edgeStyle=orthogonalEdgeStyle;rounded=0;orthogonalLoop=1;jettySize=auto;html=1;exitX=0.5;exitY=0;exitDx=0;exitDy=0;strokeColor=#6c8ebf;fillColor=#dae8fc;" edge="1" parent="1" source="K68oZ9XiZdih-K7149-5-142" target="K68oZ9XiZdih-K7149-5-155">
          <mxGeometry relative="1" as="geometry" />
        </mxCell>
        <mxCell id="K68oZ9XiZdih-K7149-5-142" value="Presenter" style="rounded=0;whiteSpace=wrap;html=1;fillColor=#dae8fc;strokeColor=#6c8ebf;" vertex="1" parent="1">
          <mxGeometry x="2788" y="695" width="160" height="50" as="geometry" />
        </mxCell>
        <mxCell id="K68oZ9XiZdih-K7149-5-143" style="edgeStyle=orthogonalEdgeStyle;rounded=0;orthogonalLoop=1;jettySize=auto;html=1;exitX=1;exitY=0.75;exitDx=0;exitDy=0;entryX=0;entryY=0.75;entryDx=0;entryDy=0;dashed=1;fillColor=#dae8fc;strokeColor=#6c8ebf;" edge="1" parent="1" source="K68oZ9XiZdih-K7149-5-144" target="K68oZ9XiZdih-K7149-5-142">
          <mxGeometry relative="1" as="geometry" />
        </mxCell>
        <mxCell id="K68oZ9XiZdih-K7149-5-144" value="&amp;lt;ModelLayer&amp;gt;" style="rounded=0;whiteSpace=wrap;html=1;fillColor=#dae8fc;strokeColor=#6c8ebf;" vertex="1" parent="1">
          <mxGeometry x="2548" y="695" width="160" height="50" as="geometry" />
        </mxCell>
        <mxCell id="K68oZ9XiZdih-K7149-5-145" style="edgeStyle=orthogonalEdgeStyle;rounded=0;orthogonalLoop=1;jettySize=auto;html=1;exitX=0;exitY=0.75;exitDx=0;exitDy=0;entryX=1;entryY=0.5;entryDx=0;entryDy=0;strokeColor=#6c8ebf;fillColor=#dae8fc;endArrow=block;endFill=0;" edge="1" parent="1" target="K68oZ9XiZdih-K7149-5-156">
          <mxGeometry relative="1" as="geometry">
            <mxPoint x="3028" y="732.5" as="sourcePoint" />
            <Array as="points">
              <mxPoint x="2978" y="733" />
              <mxPoint x="2978" y="805" />
            </Array>
          </mxGeometry>
        </mxCell>
        <mxCell id="K68oZ9XiZdih-K7149-5-146" style="edgeStyle=orthogonalEdgeStyle;rounded=0;orthogonalLoop=1;jettySize=auto;html=1;exitX=0;exitY=0.5;exitDx=0;exitDy=0;entryX=1;entryY=0.5;entryDx=0;entryDy=0;strokeColor=#6c8ebf;fillColor=#dae8fc;" edge="1" parent="1" target="K68oZ9XiZdih-K7149-5-142">
          <mxGeometry relative="1" as="geometry">
            <mxPoint x="3028" y="720" as="sourcePoint" />
          </mxGeometry>
        </mxCell>
        <mxCell id="K68oZ9XiZdih-K7149-5-147" style="edgeStyle=orthogonalEdgeStyle;rounded=0;orthogonalLoop=1;jettySize=auto;html=1;exitX=0.5;exitY=0;exitDx=0;exitDy=0;entryX=1;entryY=0.5;entryDx=0;entryDy=0;strokeColor=#6c8ebf;fillColor=#dae8fc;" edge="1" parent="1" source="K68oZ9XiZdih-K7149-5-161" target="K68oZ9XiZdih-K7149-5-155">
          <mxGeometry relative="1" as="geometry">
            <mxPoint x="3108" y="695" as="sourcePoint" />
          </mxGeometry>
        </mxCell>
        <mxCell id="K68oZ9XiZdih-K7149-5-148" value="" style="endArrow=none;dashed=1;html=1;rounded=0;fillColor=#fff2cc;strokeColor=#d6b656;strokeWidth=2;" edge="1" parent="1">
          <mxGeometry width="50" height="50" relative="1" as="geometry">
            <mxPoint x="2748" y="785" as="sourcePoint" />
            <mxPoint x="2748" y="625" as="targetPoint" />
          </mxGeometry>
        </mxCell>
        <mxCell id="K68oZ9XiZdih-K7149-5-149" value="" style="endArrow=none;dashed=1;html=1;rounded=0;fillColor=#fff2cc;strokeColor=#d6b656;strokeWidth=2;" edge="1" parent="1">
          <mxGeometry width="50" height="50" relative="1" as="geometry">
            <mxPoint x="2988" y="785" as="sourcePoint" />
            <mxPoint x="2988" y="630" as="targetPoint" />
          </mxGeometry>
        </mxCell>
        <mxCell id="K68oZ9XiZdih-K7149-5-150" value="Protocols/Interfaces" style="text;html=1;align=center;verticalAlign=middle;resizable=0;points=[];autosize=1;strokeColor=none;fillColor=none;" vertex="1" parent="1">
          <mxGeometry x="2563" y="775" width="130" height="30" as="geometry" />
        </mxCell>
        <mxCell id="K68oZ9XiZdih-K7149-5-151" value="Presentation Mediator" style="text;html=1;align=center;verticalAlign=middle;resizable=0;points=[];autosize=1;strokeColor=none;fillColor=none;fontStyle=1" vertex="1" parent="1">
          <mxGeometry x="2795.5" y="565" width="150" height="30" as="geometry" />
        </mxCell>
        <mxCell id="K68oZ9XiZdih-K7149-5-152" value="Model events &amp;gt;&amp;gt;" style="text;html=1;align=center;verticalAlign=middle;resizable=0;points=[];autosize=1;strokeColor=none;fillColor=none;fontStyle=1" vertex="1" parent="1">
          <mxGeometry x="2568" y="565" width="120" height="30" as="geometry" />
        </mxCell>
        <mxCell id="K68oZ9XiZdih-K7149-5-153" value="&amp;lt;&amp;lt; User events" style="text;html=1;align=center;verticalAlign=middle;resizable=0;points=[];autosize=1;strokeColor=none;fillColor=none;fontStyle=1" vertex="1" parent="1">
          <mxGeometry x="3290" y="565" width="110" height="30" as="geometry" />
        </mxCell>
        <mxCell id="K68oZ9XiZdih-K7149-5-154" value="&lt;font style=&quot;font-size: 24px;&quot;&gt;MVP&lt;/font&gt;" style="text;html=1;align=center;verticalAlign=middle;resizable=0;points=[];autosize=1;strokeColor=none;fillColor=none;fontStyle=1" vertex="1" parent="1">
          <mxGeometry x="2530" y="508" width="70" height="40" as="geometry" />
        </mxCell>
        <mxCell id="K68oZ9XiZdih-K7149-5-155" value="ViewData" style="rounded=0;whiteSpace=wrap;html=1;fillColor=#dae8fc;strokeColor=#6c8ebf;" vertex="1" parent="1">
          <mxGeometry x="2788" y="605" width="160" height="50" as="geometry" />
        </mxCell>
        <mxCell id="K68oZ9XiZdih-K7149-5-156" value="&amp;lt;View&amp;gt;" style="rounded=0;whiteSpace=wrap;html=1;fillColor=#dae8fc;strokeColor=#6c8ebf;" vertex="1" parent="1">
          <mxGeometry x="2785.5" y="780" width="160" height="50" as="geometry" />
        </mxCell>
        <mxCell id="K68oZ9XiZdih-K7149-5-157" value="&amp;lt;&amp;lt;creates&amp;gt;&amp;gt;" style="text;html=1;align=center;verticalAlign=middle;resizable=0;points=[];autosize=1;strokeColor=none;fillColor=none;fontSize=10;" vertex="1" parent="1">
          <mxGeometry x="2778" y="665" width="80" height="30" as="geometry" />
        </mxCell>
        <mxCell id="K68oZ9XiZdih-K7149-5-158" value="&amp;lt;&amp;lt;events&amp;gt;&amp;gt;" style="text;html=1;align=center;verticalAlign=middle;resizable=0;points=[];autosize=1;strokeColor=none;fillColor=none;fontSize=10;" vertex="1" parent="1">
          <mxGeometry x="2958" y="695" width="80" height="30" as="geometry" />
        </mxCell>
        <mxCell id="K68oZ9XiZdih-K7149-5-159" value="" style="rounded=0;whiteSpace=wrap;html=1;fillColor=#D4E1F5;strokeColor=#6c8ebf;fillStyle=hatch;" vertex="1" parent="1">
          <mxGeometry x="3020" y="650" width="420" height="170" as="geometry" />
        </mxCell>
        <mxCell id="K68oZ9XiZdih-K7149-5-160" style="edgeStyle=orthogonalEdgeStyle;rounded=0;orthogonalLoop=1;jettySize=auto;html=1;exitX=1;exitY=0.25;exitDx=0;exitDy=0;entryX=0;entryY=0.25;entryDx=0;entryDy=0;fillColor=#dae8fc;strokeColor=#6c8ebf;" edge="1" parent="1" source="K68oZ9XiZdih-K7149-5-161" target="K68oZ9XiZdih-K7149-5-163">
          <mxGeometry relative="1" as="geometry" />
        </mxCell>
        <mxCell id="K68oZ9XiZdih-K7149-5-161" value="UIViewController" style="rounded=0;whiteSpace=wrap;html=1;fillColor=#dae8fc;strokeColor=#6c8ebf;" vertex="1" parent="1">
          <mxGeometry x="3030" y="695" width="160" height="50" as="geometry" />
        </mxCell>
        <mxCell id="K68oZ9XiZdih-K7149-5-162" style="edgeStyle=orthogonalEdgeStyle;rounded=0;orthogonalLoop=1;jettySize=auto;html=1;exitX=0;exitY=0.75;exitDx=0;exitDy=0;entryX=1;entryY=0.75;entryDx=0;entryDy=0;dashed=1;fillColor=#dae8fc;strokeColor=#6c8ebf;" edge="1" parent="1" source="K68oZ9XiZdih-K7149-5-163" target="K68oZ9XiZdih-K7149-5-161">
          <mxGeometry relative="1" as="geometry" />
        </mxCell>
        <mxCell id="K68oZ9XiZdih-K7149-5-163" value="UIView&lt;br&gt;UIButton&amp;nbsp;..." style="rounded=0;whiteSpace=wrap;html=1;fillColor=#dae8fc;strokeColor=#6c8ebf;" vertex="1" parent="1">
          <mxGeometry x="3270" y="695" width="160" height="50" as="geometry" />
        </mxCell>
        <mxCell id="K68oZ9XiZdih-K7149-5-164" value="" style="endArrow=none;dashed=1;html=1;rounded=0;fillColor=#fff2cc;strokeColor=#d6b656;strokeWidth=2;" edge="1" parent="1">
          <mxGeometry width="50" height="50" relative="1" as="geometry">
            <mxPoint x="3230" y="785" as="sourcePoint" />
            <mxPoint x="3230" y="675" as="targetPoint" />
          </mxGeometry>
        </mxCell>
        <mxCell id="K68oZ9XiZdih-K7149-5-165" value="UIKit" style="text;html=1;align=center;verticalAlign=middle;resizable=0;points=[];autosize=1;strokeColor=none;fillColor=none;fontStyle=1" vertex="1" parent="1">
          <mxGeometry x="3380" y="650" width="50" height="30" as="geometry" />
        </mxCell>
        <mxCell id="K68oZ9XiZdih-K7149-5-166" value="Binds the View to&lt;br&gt;the ViewModel&lt;br&gt;properties" style="text;html=1;align=center;verticalAlign=middle;resizable=0;points=[];autosize=1;strokeColor=none;fillColor=none;" vertex="1" parent="1">
          <mxGeometry x="2800" y="385" width="120" height="60" as="geometry" />
        </mxCell>
        <mxCell id="K68oZ9XiZdih-K7149-5-167" value="Configures the View&lt;br&gt;with ViewData" style="text;html=1;align=center;verticalAlign=middle;resizable=0;points=[];autosize=1;strokeColor=none;fillColor=none;" vertex="1" parent="1">
          <mxGeometry x="3043" y="770" width="130" height="40" as="geometry" />
        </mxCell>
        <mxCell id="K68oZ9XiZdih-K7149-5-168" value="Mediator" style="text;html=1;align=center;verticalAlign=middle;resizable=0;points=[];autosize=1;strokeColor=none;fillColor=none;fontStyle=1" vertex="1" parent="1">
          <mxGeometry x="3075" y="565" width="70" height="30" as="geometry" />
        </mxCell>
        <mxCell id="K68oZ9XiZdih-K7149-5-169" value="Mediator" style="text;html=1;align=center;verticalAlign=middle;resizable=0;points=[];autosize=1;strokeColor=none;fillColor=none;fontStyle=1" vertex="1" parent="1">
          <mxGeometry x="2830.5" y="217.5" width="70" height="30" as="geometry" />
        </mxCell>
        <mxCell id="K68oZ9XiZdih-K7149-5-170" value="&amp;lt;&amp;lt; User events" style="text;html=1;align=center;verticalAlign=middle;resizable=0;points=[];autosize=1;strokeColor=none;fillColor=none;fontStyle=1" vertex="1" parent="1">
          <mxGeometry x="3045" y="217.5" width="110" height="30" as="geometry" />
        </mxCell>
      </root>
    </mxGraphModel>
  </diagram>
</mxfile>
